<?xml version="1.0" ?><!DOCTYPE svg  PUBLIC '-//W3C//DTD SVG 1.1//EN'  'http://www.w3.org/Graphics/SVG/1.1/DTD/svg11.dtd'><svg enable-background="new 0 0 160 80" id="Layer_1" version="1.1" viewBox="0 0 160 80" xml:space="preserve" xmlns="http://www.w3.org/2000/svg" xmlns:xlink="http://www.w3.org/1999/xlink"><g><rect height="5" width="5" x="72" y="6"/><rect height="5" width="5" x="77" y="6"/><rect height="5" width="6" x="60" y="23"/><rect height="5" width="6" x="66" y="23"/><rect height="5" width="6" x="82" y="6"/><rect height="6" width="5" x="72" y="33"/><rect height="6" width="5" x="77" y="33"/><rect height="6" width="6" x="66" y="33"/><rect height="6" width="5" x="88" y="33"/><rect height="6" width="6" x="82" y="33"/><rect height="5" width="5" x="72" y="39"/><rect height="5" width="5" x="77" y="39"/><rect height="5" width="6" x="66" y="39"/><rect height="5" width="5" x="88" y="39"/><rect height="5" width="6" x="82" y="39"/><rect height="6" width="5" x="72" y="44"/><rect height="6" width="5" x="77" y="44"/><rect height="6" width="6" x="82" y="44"/><rect height="6" width="5" x="72" y="50"/><rect height="6" width="5" x="72" y="17"/><rect height="6" width="6" x="60" y="17"/><rect height="6" width="6" x="66" y="17"/><rect height="6" width="6" x="60" y="11"/><rect height="5" width="6" x="66" y="6"/><rect height="6" width="6" x="93" y="11"/><rect height="5" width="5" x="88" y="6"/><rect height="5" width="6" x="93" y="6"/><rect height="5" width="5" x="72" y="23"/><rect height="5" width="5" x="72" y="28"/><rect height="5" width="6" x="60" y="28"/><rect height="5" width="6" x="66" y="28"/><rect height="6" width="6" x="60" y="44"/><rect height="6" width="6" x="66" y="44"/><rect height="5" width="6" x="60" y="39"/><rect height="6" width="6" x="60" y="33"/><rect height="6" width="6" x="60" y="50"/><rect height="6" width="6" x="66" y="50"/><rect height="5" width="5" x="72" y="56"/><rect height="6" width="5" x="72" y="61"/><rect height="5" width="6" x="60" y="56"/><rect height="5" width="6" x="66" y="56"/><rect height="6" width="6" x="60" y="61"/><rect height="6" width="6" x="66" y="61"/><rect height="6" width="5" x="72" y="11"/><rect height="6" width="5" x="77" y="11"/><rect height="6" width="6" x="66" y="11"/><rect height="6" width="5" x="88" y="11"/><rect height="6" width="6" x="82" y="11"/><rect height="6" width="6" x="93" y="17"/><rect height="6" width="5" x="77" y="17"/><rect height="6" width="5" x="88" y="17"/><rect height="6" width="6" x="82" y="17"/></g></svg>